<svg width="115" height="122" viewBox="0 0 115 122" fill="none" xmlns="http://www.w3.org/2000/svg">
<path fill-rule="evenodd" clip-rule="evenodd" d="M95.2303 0.371889C94.0873 1.0398 93.6149 2.26939 93.6149 4.57739C93.6149 6.5683 93.6403 6.63921 94.3544 6.63921C94.9771 6.63921 95.2921 6.24434 96.3479 4.14003C97.7692 1.30689 97.8766 0.119784 96.7209 0.00607126C96.3141 -0.034228 95.6432 0.130406 95.2303 0.371889ZM31.5403 1.43123C30.7753 2.32375 30.9404 3.03945 32.5449 5.79324C34.7762 9.62198 35.3276 9.23024 34.4585 4.43306C33.8597 1.12883 32.7647 0.00232263 31.5403 1.43123ZM52.3876 1.66022C51.1647 3.30218 50.8083 6.54268 51.7424 7.52923C52.8574 8.70666 55.7536 2.64927 54.7103 1.32189C54.1512 0.610248 53.0499 0.770821 52.3876 1.66022ZM59.1436 16.4982C58.726 17.3216 59.0141 18.704 59.7856 19.5784C60.6248 20.5297 61.0599 20.2516 61.1676 18.695C61.3205 16.4907 59.9184 14.969 59.1436 16.4982ZM80.1247 17.068C79.5191 17.5859 79.4452 17.8915 79.5097 19.6134C79.5499 20.6896 79.6528 21.6902 79.7386 21.8367C80.0202 22.3178 81.2443 22.1151 82.0383 21.4553C82.7183 20.8905 82.8177 20.5796 82.8177 19.0186C82.8177 18.0345 82.658 17.0608 82.4628 16.8546C81.9409 16.3035 80.9086 16.3976 80.1247 17.068ZM91.1522 19.6831C90.1879 20.1729 89.3256 22.1251 89.3256 23.8186C89.3256 25.3818 89.693 25.7448 90.9398 25.4143C92.6981 24.9482 94.1698 21.0154 93.0345 19.8165C92.4659 19.216 92.1198 19.1913 91.1522 19.6831ZM30.3851 19.9402C29.4344 20.5268 29.8293 22.0916 31.5844 24.6895C32.7161 26.3646 33.9568 27.1859 35.1377 27.0419C35.8763 26.9519 35.9287 26.8463 35.8893 25.5286C35.8088 22.8483 34.2245 20.3247 32.4703 20.0832C32.0964 20.032 31.5906 19.9067 31.3465 19.8052C31.1025 19.7037 30.67 19.7643 30.3851 19.9402ZM52.106 21.9926C49.5969 23.2744 46.9763 27.3068 44.6714 33.4326C44.2986 34.4235 43.8881 35.3033 43.7591 35.3873C43.6301 35.4716 42.1647 35.3129 40.5028 35.0349C38.6427 34.7238 36.3812 34.576 34.6212 34.6507C32.1778 34.7544 31.5057 34.9071 30.0012 35.7006C27.8018 36.8609 26.4923 38.6109 26.0178 41.0236C25.3353 44.4959 27.0546 49.3352 30.6094 53.9475C33.2028 57.312 33.2888 57.6035 32.1937 59.311C30.9407 61.2648 29.191 64.9795 28.2364 67.713C27.5841 69.5802 27.4114 70.627 27.3856 72.8675C27.3569 75.3564 27.4486 75.8843 28.1846 77.4673C30.6026 82.6671 37.04 84.2941 45.7345 81.9027C47.2219 81.4934 47.4786 81.4959 48.101 81.9267C48.4853 82.1926 48.7994 82.5634 48.7994 82.7508C48.7994 83.5112 51.5821 87.7358 53.0458 89.1981C55.309 91.4586 56.8153 92.2043 59.1528 92.2218C62.8629 92.2496 66.0476 89.6273 68.444 84.5724C69.1909 82.9967 69.802 81.5259 69.802 81.3038C69.802 80.4625 71.962 80.271 74.9267 80.8499C76.9027 81.2357 80.5267 80.8112 82.0164 80.0196C84.6204 78.6359 86.3675 75.5241 86.3675 72.2702C86.3675 69.5698 85.9158 68.5386 81.5466 61.2638C79.9111 58.5413 79.7472 59.3051 82.9964 54.5095C87.1268 48.414 88.734 44.215 88.734 39.5197C88.734 36.0449 88.2417 34.2617 86.7875 32.4676C86.2228 31.7707 85.0032 30.8091 84.0773 30.3308C81.1316 28.8088 75.515 28.9428 69.1785 30.6863L66.5011 31.423L65.5633 29.9903C62.6046 25.4718 59.446 22.5902 56.4071 21.6371C54.4077 21.0101 53.9566 21.0473 52.106 21.9926ZM58.2388 26.2647C59.7536 27.3231 62.4067 31.2583 62.4067 32.4464C62.4067 33.1736 62.1964 33.4183 61.1492 33.9075C60.4576 34.2305 58.652 35.2842 57.1366 36.2489C53.7469 38.4069 52.6006 38.6434 49.9359 37.7343C47.0192 36.739 46.8269 36.531 47.2923 34.8709C48.7888 29.5348 50.59 26.5236 52.7929 25.6758C54.5245 25.0094 56.7937 25.2547 58.2388 26.2647ZM10.8086 32.278C10.5531 32.5482 10.3439 33.0303 10.3439 33.3492C10.3439 34.7806 12.0407 35.3632 17.1476 35.6859C20.721 35.9115 21.4667 35.6694 20.5376 34.5847C18.7518 32.4995 12.0939 30.9209 10.8086 32.278ZM83.0109 33.2933C87.1141 35.5066 87.6794 40.1767 84.6248 46.6261C83.2017 49.6314 78.698 56.1542 78.0463 56.1542C77.5005 56.1542 73.7008 52.6495 72.8317 51.3443C71.7618 49.7376 71.3953 48.7173 70.9696 46.1575C70.7838 45.0407 70.1123 42.4728 69.4775 40.451C68.8424 38.4294 68.323 36.2901 68.323 35.6969V34.6188L70.7634 33.8347C74.2312 32.7204 76.0818 32.4333 79.1201 32.5385C81.1233 32.6076 82.0865 32.7944 83.0109 33.2933ZM64.5528 37.0199C65.1285 37.7 65.7941 39.8671 66.5262 43.444C66.9741 45.633 67.0113 46.2291 66.7084 46.3518C66.36 46.493 59.5643 42.5706 57.564 41.0736L56.7147 40.4378L57.4161 39.8424C58.1657 39.2057 63.225 36.5419 63.766 36.4988C63.9441 36.4847 64.2982 36.719 64.5528 37.0199ZM39.4763 37.2592C43.4588 37.8933 43.4967 37.9427 43.0071 41.8674C42.467 46.1956 41.6795 47.8132 38.388 51.358C36.8957 52.965 35.5 54.2799 35.2864 54.2799C34.0713 54.2799 30.8957 50.0378 29.0676 45.9726C27.6941 42.9186 27.5178 41.3 28.381 39.6778C29.8432 36.9305 33.0371 36.2345 39.4763 37.2592ZM103.229 38.4022C101.61 38.8883 100.271 40.5319 100.271 42.0323C100.271 42.8777 101.207 43.6583 102.221 43.6583C104.283 43.6583 106.185 41.614 106.186 39.3963C106.187 38.0199 105.393 37.7528 103.229 38.4022ZM49.3263 40.3663C49.6274 40.6571 49.3981 41.0061 48.2131 42.0614C46.2593 43.8014 45.6609 43.6955 45.7883 41.6331C45.8404 40.789 46.0102 39.8474 46.1655 39.5409C46.4314 39.0161 46.5205 39.0133 47.6975 39.4919C48.385 39.7715 49.118 40.1651 49.3263 40.3663ZM56.5485 43.9026C57.7368 44.5524 60.6475 46.4281 63.0164 48.071C66.4372 50.4427 67.429 51.2915 67.8343 52.1934C68.2064 53.0215 68.4096 54.656 68.5842 58.2257C68.861 63.8892 68.6427 65.5305 67.4861 66.4812C62.6949 70.4183 60.573 71.7544 59.0925 71.7673C58.2281 71.7747 49.4727 67.08 47.7241 65.6714C47.1012 65.1694 46.3539 64.1123 45.9277 63.1295C45.2615 61.5921 45.1864 60.9633 45.0606 55.849C44.9074 49.6264 45.0396 48.9897 46.7554 47.6995C47.263 47.3178 48.4299 46.3043 49.3481 45.4478C51.0147 43.8929 52.9369 42.7411 53.8862 42.728C54.1622 42.7243 55.3602 43.2528 56.5485 43.9026ZM1.17376 44.2216C-1.29123 45.4915 0.363832 47.404 3.92954 47.4059C7.10183 47.4077 7.88721 46.6092 6.19339 45.1038C5.33968 44.3453 3.608 43.6465 2.65282 43.6752C2.40878 43.6824 1.7432 43.9282 1.17376 44.2216ZM53.2934 51.1459C50.8319 52.775 50.4988 57.4766 52.671 59.9324C53.6495 61.0389 55.0715 61.1392 56.7733 60.2226C58.3701 59.3623 59.2368 57.9599 59.3667 56.0268C59.6199 52.2549 56.006 49.3505 53.2934 51.1459ZM42.5193 54.5482C42.4871 55.3458 42.5729 57.158 42.7101 58.5753C43.0027 61.5965 42.8477 61.7255 40.7829 60.1754C38.7471 58.6475 37.8544 57.6569 37.8544 56.9262C37.8544 56.506 38.5788 55.5188 39.7837 54.2967C41.374 52.6841 41.789 52.407 42.1454 52.7194C42.4297 52.9687 42.5578 53.5945 42.5193 54.5482ZM10.3439 54.8078C9.93718 54.8793 8.90568 55.1455 8.05138 55.3989C6.64332 55.8162 6.49837 55.9424 6.49837 56.7494C6.49837 58.0752 7.13022 58.4588 8.94355 58.2336C11.2808 57.9433 13.4928 57.1602 14.4066 56.2992C15.205 55.5466 15.2109 55.5166 14.6506 55.0602C14.1007 54.6122 12.1135 54.4957 10.3439 54.8078ZM108.898 55.4035C108.04 56.0377 108.157 57.0921 109.145 57.6475C109.655 57.9337 110.537 58.0114 111.985 57.8974C115.595 57.6131 115.876 57.1561 113.294 55.7637C111.5 54.7959 109.897 54.6644 108.898 55.4035ZM74.4469 57.4651C75.6452 58.6915 75.6671 59.2264 74.5643 60.3419C73.2899 61.6312 72.6335 61.3457 72.5199 59.4522C72.4096 57.616 72.6412 56.4666 73.1213 56.4666C73.3139 56.4666 73.9105 56.9159 74.4469 57.4651ZM36.2499 60.6168C36.5874 60.8255 38.341 62.3766 40.1463 64.0638C43.7322 67.4146 44.3581 68.4184 45.1086 72.0206C45.3491 73.1737 45.765 74.9209 46.0333 75.9034C46.6143 78.0311 46.4243 78.4213 44.5752 78.9018C42.3481 79.48 37.4515 79.9621 35.9452 79.7509C33.9553 79.4722 31.7778 78.4388 30.925 77.3679C30.5378 76.8821 29.9894 75.8437 29.706 75.0605C29.2563 73.8166 29.2347 73.3502 29.5368 71.3774C29.9473 68.6958 31.5678 64.9526 33.5237 62.1679C34.9477 60.1404 35.224 59.9833 36.2499 60.6168ZM79.3925 63.1148C81.0145 64.9126 82.1998 67.3218 82.7041 69.8454C83.3786 73.2205 82.6583 74.9809 80.1324 76.1283C79.0313 76.6288 78.0871 76.7725 75.9046 76.7725C74.359 76.7725 72.7368 76.6288 72.2996 76.4532C71.5423 76.1493 71.5127 76.0568 71.6757 74.5007C72.2428 69.08 72.4708 67.6686 72.9305 66.7295C73.5443 65.4762 77.1494 61.7774 77.757 61.7774C77.993 61.7774 78.729 62.3794 79.3925 63.1148ZM20.0317 68.3627C19.1544 68.9023 18.5574 70.4293 18.9334 71.1712C19.1121 71.5236 19.349 71.7676 19.4602 71.7132C20.8647 71.025 22.7387 69.8448 23.0446 69.4555C23.9131 68.3506 21.4839 67.4696 20.0317 68.3627ZM49.1789 70.721C51.4073 71.9072 54.7156 74.2083 54.7156 74.5723C54.7156 75.073 53.4945 75.7797 51.2141 76.5991L49.0875 77.3629L48.6104 76.5938C47.9939 75.6001 46.7311 70.8819 46.9328 70.3262C47.1476 69.7348 47.4141 69.7817 49.1789 70.721ZM68.0807 71.5398C68.254 72.5339 67.7571 74.9072 67.3406 75.0762C66.791 75.2986 63.7379 74.1605 63.7379 73.7329C63.7379 73.214 66.7691 70.8369 67.4308 70.8369C67.7441 70.8369 68.0079 71.1222 68.0807 71.5398ZM97.7506 73.7713C97.1678 74.2221 97.1678 74.2293 97.7802 75.108C98.8291 76.6129 101.36 78.0221 103.013 78.0221C104.602 78.0221 105.595 77.606 105.595 76.9402C105.595 76.3251 104.163 75.2105 103.373 75.2105C103.008 75.2105 102.55 75.0068 102.354 74.7578C101.607 73.8081 98.5502 73.1527 97.7506 73.7713ZM63.5708 78.0418C66.9081 79.4135 66.7924 79.2707 66.1405 81.2088C63.8178 88.115 60.2444 90.9785 56.4796 88.9501C53.9377 87.5805 50.5657 83.0261 50.5864 80.9899C50.5911 80.5053 51.2387 80.0524 53.4676 78.9743C55.0487 78.2092 56.8085 77.4001 57.3779 77.1761C58.7748 76.6266 60.8265 76.9134 63.5708 78.0418ZM6.73886 80.7346C6.95215 80.8249 7.20743 80.8137 7.30564 80.7099C7.40385 80.6062 7.22932 80.5325 6.91753 80.5459C6.57291 80.5609 6.50281 80.635 6.73886 80.7346ZM19.6723 85.8645C18.8296 86.6458 18.6266 87.0579 18.6266 87.9888C18.6266 88.6239 18.7864 89.3121 18.9816 89.5183C19.5247 90.0919 21.0286 89.9632 22.1382 89.2487C23.0431 88.6664 23.1197 88.504 22.9653 87.4987C22.7408 86.0382 22.0063 84.8948 21.2925 84.8948C20.9766 84.8948 20.2474 85.3312 19.6723 85.8645ZM81.412 90.7385C80.2581 90.9731 80.0572 91.8794 80.7713 93.6323C81.8572 96.2977 85.1842 98.9081 85.1842 97.0946C85.1842 95.9546 83.3573 91.1353 82.8071 90.8244C82.5089 90.6557 82.2229 90.537 82.1717 90.5605C82.1202 90.5839 81.7785 90.6642 81.412 90.7385ZM32.0562 92.9969C30.2207 94.9762 28.0926 98.3663 28.0926 99.3107C28.0926 99.6172 28.3381 100.007 28.6381 100.176C29.9757 100.932 34.3561 97.187 35.3506 94.4373C35.8633 93.019 35.8618 92.9641 35.2808 92.1415C34.9534 91.6782 34.4866 91.2574 34.2434 91.2068C34 91.1562 33.0158 91.9619 32.0562 92.9969ZM44.1368 92.1581C43.636 92.8144 43.434 94.4251 43.7443 95.2867C44.0993 96.2727 45.1731 96.9718 45.615 96.5051C46.1747 95.914 46.7376 92.9937 46.4146 92.3564C46.0714 91.6789 44.6001 91.5508 44.1368 92.1581ZM54.1533 106.326C52.9919 107.885 52.9973 109.915 54.1716 113.229C55.1895 116.102 56.6319 116.492 57.3806 114.095C57.74 112.945 57.3194 107.502 56.7902 106.458C56.1953 105.284 54.9748 105.223 54.1533 106.326ZM92.6334 106.008C91.8009 106.624 91.9672 107.35 93.3551 109.158C95.0868 111.415 97.3125 112.421 97.3125 110.948C97.3125 109.7 96.5135 107.809 95.5205 106.706C94.3523 105.409 93.6672 105.243 92.6334 106.008ZM70.5534 110.498C68.911 112.414 71.3337 119.832 73.4949 119.505C74.0499 119.421 74.0854 119.219 74.0064 116.603C73.8987 113.047 73.4719 111.281 72.5309 110.5C71.6038 109.73 71.2119 109.729 70.5534 110.498ZM38.0023 114.325C37.2101 114.805 36.7498 115.422 36.0698 116.916C35.4559 118.264 35.3018 120.982 35.7952 121.758C36.047 122.154 36.1978 122.092 36.7646 121.365C38.9453 118.568 40.2599 114.873 39.3024 114.233C38.7823 113.886 38.7211 113.89 38.0023 114.325Z" fill="#93AB95" fill-opacity="0.8"/>
</svg>
